<?xml version="1.0" encoding="UTF-8"?>
<svg id="Calque_2" data-name="Calque 2" xmlns="http://www.w3.org/2000/svg" xmlns:xlink="http://www.w3.org/1999/xlink" viewBox="0 0 441.05 183.99">
  <defs>
    <style>
      .cls-1 {
        fill: url(#Dégradé_sans_nom_107);
      }

      .cls-1, .cls-2 {
        stroke-width: 0px;
      }

      .cls-2 {
        fill: url(#Dégradé_sans_nom_117);
      }
    </style>
    <linearGradient id="Dégradé_sans_nom_107" data-name="Dégradé sans nom 107" x1="0" y1="83.79" x2="199.47" y2="83.79" gradientUnits="userSpaceOnUse">
      <stop offset=".56" stop-color="#2cb5b4"/>
      <stop offset=".87" stop-color="#13f2a1"/>
    </linearGradient>
    <linearGradient id="Dégradé_sans_nom_117" data-name="Dégradé sans nom 117" x1="180.37" y1="91.99" x2="441.05" y2="91.99" gradientUnits="userSpaceOnUse">
      <stop offset="0" stop-color="#2cb5b4"/>
      <stop offset=".22" stop-color="#13f2a1"/>
    </linearGradient>
  </defs>
  <g id="Calque_1-2" data-name="Calque 1">
    <g id="Calque_3" data-name="Calque 3">
      <g id="Calque_7" data-name="Calque 7">
        <g>
          <path class="cls-1" d="M197.64,35.02l-10.72-23.36C183.61,4.46,176.38-.12,168.44,0c-7.93.12-15.03,4.91-18.12,12.21l-37.33,88.31-28.26-54.64c-3.27-6.32-9.65-10.43-16.76-10.79-7.11-.37-13.87,3.09-17.76,9.05L3.25,116.15c-6.03,9.25-3.42,21.64,5.83,27.68,9.25,6.03,21.64,3.42,27.68-5.83l28.21-43.26,32.08,62.02c3.44,6.66,10.31,10.81,17.76,10.81.26,0,.52,0,.78-.01,7.75-.3,14.63-5.05,17.65-12.2l39.4-93.2c4.77,1.73,10.2,1.66,15.17-.62,10.04-4.61,14.44-16.48,9.84-26.52ZM179.46,50.89c-4.53,0-8.21-3.67-8.21-8.21,0-2.1.79-4.01,2.09-5.46l-4.49-9.79-51.28,121.3c-.45,1.07-1.48,1.79-2.65,1.83-.04,0-.08,0-.12,0-1.12,0-2.15-.62-2.66-1.62l-45.48-87.93-39.98,61.3c.96,1.34,1.53,2.98,1.53,4.75,0,4.53-3.67,8.21-8.21,8.21s-8.21-3.67-8.21-8.21,3.67-8.21,8.21-8.21c.57,0,1.12.06,1.66.17l42.78-65.61c.58-.89,1.59-1.43,2.66-1.36,1.07.05,2.02.67,2.51,1.62l44.91,86.83,51.44-121.68c.46-1.1,1.53-1.81,2.72-1.83,1.18-.06,2.28.67,2.77,1.75l7.23,15.77c.25-.02.5-.04.76-.04,4.53,0,8.21,3.67,8.21,8.21s-3.67,8.21-8.21,8.21Z"/>
          <path class="cls-2" d="M431.97,47.71c-9.25-6.03-21.64-3.42-27.68,5.83l-36.02,55.24L299.2,8.64c-4.31-6.24-11.77-9.51-19.28-8.44-7.51,1.07-13.77,6.29-16.16,13.48l-31.91,95.86-13.3-29.02c-4.6-10.04-16.47-14.45-26.51-9.85-10.04,4.6-14.45,16.47-9.85,26.51l34.44,75.13c3.27,7.14,10.39,11.67,18.18,11.67.36,0,.73,0,1.09-.03,8.2-.45,15.3-5.86,17.89-13.65l35.27-105.93,63.23,91.67c3.79,5.49,10.03,8.72,16.72,8.64,6.67-.09,12.85-3.49,16.49-9.07l52.31-80.22c6.03-9.25,3.42-21.64-5.83-27.68ZM421.05,72.67c-.57,0-1.12-.06-1.66-.17l-48.14,73.82c-.55.84-1.47,1.35-2.47,1.36-1.04-.01-1.94-.47-2.51-1.3l-82.58-119.73-46.03,138.28c-.39,1.17-1.45,1.98-2.68,2.05-.05,0-.11,0-.16,0-1.17,0-2.24-.68-2.73-1.75l-31.22-68.12c-.16,0-.32.02-.49.02-4.53,0-8.21-3.67-8.21-8.21s3.67-8.21,8.21-8.21,8.21,3.67,8.21,8.21c0,2.2-.87,4.19-2.27,5.66l28.06,61.22,45.53-136.77c.36-1.08,1.3-1.86,2.42-2.02,1.13-.16,2.25.33,2.89,1.27l83.46,121,45.7-70.08c-.96-1.34-1.53-2.98-1.53-4.75,0-4.53,3.67-8.21,8.21-8.21s8.21,3.67,8.21,8.21-3.67,8.21-8.21,8.21Z"/>
        </g>
      </g>
    </g>
  </g>
</svg>