<?xml version="1.0" standalone="no"?>
<!DOCTYPE svg PUBLIC "-//W3C//DTD SVG 20010904//EN"
 "http://www.w3.org/TR/2001/REC-SVG-20010904/DTD/svg10.dtd">
<svg version="1.0" xmlns="http://www.w3.org/2000/svg"
 width="1128.000000pt" height="1128.000000pt" viewBox="0 0 1128.000000 1128.000000"
 preserveAspectRatio="xMidYMid meet">
<metadata>
Created by potrace 1.14, written by Peter Selinger 2001-2017
</metadata>
<g transform="translate(0.000000,1128.000000) scale(0.100000,-0.100000)"
fill="#000000" stroke="none">
<path d="M4233 7979 c-154 -25 -304 -133 -370 -264 -20 -38 -183 -422 -293
-685 -28 -69 -58 -138 -65 -155 -8 -16 -46 -106 -85 -200 -39 -93 -78 -183
-85 -200 -7 -16 -25 -59 -40 -95 -15 -36 -33 -78 -40 -95 -8 -16 -50 -118 -95
-225 -73 -173 -111 -262 -155 -365 -71 -165 -88 -204 -96 -232 -6 -18 -13 -33
-18 -33 -4 0 -36 55 -71 123 -34 67 -91 176 -125 242 -110 212 -311 601 -455
880 -45 88 -100 183 -121 211 -100 135 -255 207 -429 200 -132 -6 -244 -54
-335 -143 -33 -33 -161 -220 -350 -513 -27 -41 -100 -154 -163 -250 -191 -291
-207 -315 -212 -325 -3 -5 -35 -55 -71 -110 -83 -126 -203 -310 -287 -440 -36
-55 -88 -134 -115 -175 -123 -184 -148 -244 -152 -373 -3 -103 13 -176 57
-260 137 -256 453 -346 711 -202 66 38 136 110 200 207 125 192 227 348 279
428 112 173 233 359 320 492 l90 137 32 -62 c18 -34 74 -143 126 -242 127
-247 227 -439 297 -575 33 -63 112 -216 176 -340 197 -382 214 -413 261 -466
152 -173 400 -219 616 -116 71 34 188 150 219 217 13 28 154 358 313 735 159
377 338 800 398 940 163 385 296 703 303 723 7 18 19 18 82 -1 32 -9 158 -8
215 2 77 14 181 74 250 145 109 110 151 222 145 381 -4 108 -6 115 -138 400
-46 102 -99 217 -117 255 -98 214 -135 268 -230 333 -115 80 -248 112 -377 91z
m125 -447 c12 -7 22 -17 22 -22 0 -4 26 -64 58 -132 32 -68 74 -158 93 -200
18 -43 39 -76 44 -74 19 5 104 -22 134 -44 100 -70 112 -226 25 -314 -123
-122 -335 -45 -351 127 -5 48 -1 66 21 111 l27 54 -32 69 c-17 37 -42 92 -55
122 -13 30 -26 52 -29 50 -2 -3 -67 -155 -145 -339 -77 -184 -145 -344 -150
-355 -5 -11 -30 -69 -55 -130 -26 -60 -52 -123 -59 -140 -13 -29 -102 -240
-189 -445 -22 -52 -47 -113 -57 -135 -10 -22 -34 -78 -53 -125 -46 -112 -285
-676 -302 -715 -14 -30 -123 -289 -238 -565 -66 -159 -87 -190 -128 -190 -40
0 -63 25 -117 130 -54 105 -188 364 -292 565 -37 72 -107 207 -155 300 -48 94
-116 224 -150 290 -73 141 -180 347 -295 570 -155 301 -213 410 -221 419 -4 5
-33 -31 -65 -80 -32 -49 -100 -154 -152 -234 -184 -282 -308 -471 -383 -587
-42 -65 -128 -197 -191 -293 -208 -318 -228 -350 -228 -359 0 -5 5 -22 12 -38
23 -57 25 -97 8 -148 -19 -58 -46 -90 -102 -120 -44 -24 -58 -27 -111 -22 -76
7 -131 43 -166 110 -69 135 27 299 176 300 l53 1 72 110 c110 171 242 373 750
1151 68 105 157 242 198 305 83 128 94 139 131 140 42 0 62 -25 137 -170 38
-74 107 -207 152 -295 45 -88 111 -214 145 -280 34 -66 104 -201 155 -300 51
-99 123 -238 160 -310 132 -254 198 -382 290 -560 51 -99 112 -217 136 -262
40 -78 54 -91 54 -51 0 10 5 18 10 18 6 0 10 5 10 11 0 10 75 190 345 829 29
69 135 319 235 555 99 237 187 444 194 460 8 17 111 262 231 545 294 696 283
673 307 693 22 19 50 18 86 -1z"/>
<path d="M7188 7985 c-2 -2 -25 -6 -52 -9 -137 -19 -281 -121 -355 -251 -16
-27 -212 -601 -436 -1275 -224 -674 -411 -1232 -415 -1240 -6 -10 -12 -5 -23
20 -8 19 -34 76 -57 125 -23 50 -47 104 -55 120 -7 17 -34 74 -59 128 -25 55
-46 101 -46 103 0 18 -145 298 -171 331 -42 52 -125 116 -187 144 -339 151
-731 -108 -721 -476 4 -116 12 -139 194 -530 13 -27 37 -81 55 -120 18 -38 67
-146 110 -240 43 -93 128 -280 190 -415 62 -135 126 -274 142 -310 17 -36 49
-108 73 -160 202 -446 224 -483 350 -566 150 -98 364 -105 527 -17 62 34 146
115 187 179 23 37 162 444 489 1429 l458 1377 33 -44 c17 -23 133 -189 256
-368 123 -179 243 -353 267 -387 23 -34 67 -97 96 -140 165 -241 633 -920 639
-928 5 -5 82 -118 173 -250 91 -133 189 -265 221 -296 163 -162 429 -189 624
-64 99 63 101 65 447 595 41 63 211 324 378 580 167 256 341 524 388 595 357
545 362 555 363 714 0 233 -159 435 -391 496 -71 19 -207 13 -281 -12 -138
-47 -214 -117 -337 -309 -95 -147 -148 -229 -497 -764 -209 -320 -239 -366
-295 -453 l-57 -88 -45 63 c-41 57 -370 534 -506 733 -31 44 -79 114 -107 155
-29 41 -125 181 -214 310 -89 129 -169 244 -177 255 -8 11 -42 61 -75 110 -34
50 -86 125 -115 168 -30 42 -78 112 -108 155 -109 158 -181 262 -301 437 -68
99 -139 198 -159 221 -49 57 -149 121 -226 144 -57 17 -183 33 -192 25z m97
-469 c11 -13 39 -53 63 -87 24 -35 93 -136 154 -224 61 -88 143 -207 182 -265
40 -58 124 -179 187 -270 63 -91 119 -172 124 -181 6 -10 48 -72 95 -139 47
-66 124 -178 172 -248 48 -70 92 -134 98 -142 5 -8 56 -82 112 -163 57 -81
132 -191 168 -243 36 -52 80 -116 98 -142 19 -26 89 -128 157 -227 183 -268
207 -301 245 -355 19 -27 89 -128 155 -224 66 -97 122 -176 125 -176 6 0 45
58 216 320 59 91 145 224 192 295 154 236 188 289 274 420 170 260 224 343
344 527 158 240 147 218 125 264 -54 110 18 251 144 283 87 22 187 -25 230
-108 69 -134 -34 -300 -186 -301 -44 0 -47 -2 -80 -52 -18 -29 -119 -183 -223
-343 -104 -159 -215 -330 -247 -380 -32 -49 -67 -103 -79 -120 -11 -16 -86
-131 -166 -255 -80 -124 -189 -291 -243 -372 -53 -81 -130 -199 -171 -262 -79
-123 -106 -145 -152 -127 -14 5 -39 29 -55 53 -29 44 -91 133 -247 358 -48 69
-125 181 -172 250 -47 69 -101 148 -121 175 -19 28 -98 142 -176 255 -77 113
-157 228 -176 255 -19 28 -77 111 -128 185 -215 313 -268 391 -344 500 -44 63
-105 151 -135 195 -30 44 -95 139 -145 210 -49 72 -117 171 -151 220 -34 50
-89 128 -121 175 -32 47 -84 122 -115 168 -30 45 -59 79 -63 75 -5 -6 -327
-960 -335 -993 0 -3 -3 -12 -7 -20 -3 -8 -137 -411 -297 -895 -160 -484 -295
-889 -300 -900 -5 -11 -61 -180 -125 -375 -85 -255 -123 -360 -139 -372 -28
-23 -71 -23 -93 1 -10 11 -76 147 -148 303 -163 358 -254 557 -290 633 -29 63
-67 146 -105 230 -12 28 -44 96 -71 153 -27 57 -49 105 -49 107 0 2 -16 39
-36 82 -21 43 -56 119 -78 169 -38 84 -43 90 -70 88 -39 -2 -117 40 -145 76
-52 71 -60 154 -22 228 62 122 229 147 327 48 74 -74 84 -179 24 -266 -17 -25
-16 -28 81 -240 102 -224 133 -291 195 -425 20 -44 47 -102 59 -130 13 -27 37
-80 54 -117 55 -120 87 -191 141 -308 29 -63 68 -148 87 -189 19 -41 43 -96
55 -123 11 -26 23 -48 27 -48 4 0 265 777 580 1728 316 950 580 1741 588 1758
26 57 88 66 128 20z"/>
</g>
</svg>
